<svg id="Layer_1" data-name="Layer 1" xmlns="http://www.w3.org/2000/svg" viewBox="0 0 1080 1080"><defs><style>.cls-1{fill:none;stroke:#89f0ff;stroke-miterlimit:10;stroke-width:15px;}.cls-2{fill:#0059ff;}.cls-3{fill:#fe33a8;}</style></defs><title>logosvg</title><line class="cls-1" x1="477.55" y1="153.79" x2="179.23" y2="261.45"/><line class="cls-1" x1="179.23" y1="261.45" x2="73.8" y2="465.57"/><line class="cls-1" x1="73.8" y1="465.57" x2="210.63" y2="645.01"/><line class="cls-1" x1="210.63" y1="645.01" x2="498.86" y2="759.41"/><line class="cls-1" x1="498.86" y1="759.41" x2="527.87" y2="851.9"/><line class="cls-1" x1="526.12" y1="846.33" x2="645.78" y2="938.85"/><line class="cls-1" x1="645.78" y1="938.85" x2="867.84" y2="819.57"/><line class="cls-1" x1="867.84" y1="819.57" x2="984.48" y2="539.59"/><line class="cls-1" x1="984.48" y1="539.59" x2="822.98" y2="254.72"/><line class="cls-1" x1="822.98" y1="254.72" x2="477.55" y2="153.79"/><line class="cls-1" x1="179.23" y1="261.45" x2="309.32" y2="328.74"/><line class="cls-1" x1="73.8" y1="465.57" x2="309.32" y2="328.74"/><line class="cls-1" x1="309.32" y1="328.74" x2="477.55" y2="153.79"/><line class="cls-1" x1="477.55" y1="153.79" x2="636.81" y2="461.08"/><line class="cls-1" x1="636.81" y1="461.08" x2="822.98" y2="254.72"/><line class="cls-1" x1="636.81" y1="461.08" x2="867.84" y2="819.57"/><line class="cls-1" x1="498.86" y1="759.41" x2="636.81" y2="461.08"/><line class="cls-1" x1="210.63" y1="645.01" x2="360.91" y2="526.13"/><line class="cls-1" x1="360.91" y1="526.13" x2="309.32" y2="328.74"/><line class="cls-1" x1="360.91" y1="526.13" x2="636.81" y2="461.08"/><line class="cls-1" x1="636.81" y1="461.08" x2="984.48" y2="539.59"/><line class="cls-1" x1="498.86" y1="759.41" x2="867.84" y2="819.57"/><line class="cls-1" x1="360.91" y1="526.13" x2="498.86" y2="759.41"/><circle class="cls-2" cx="180.35" cy="262.03" r="19.07"/><circle class="cls-3" cx="636.81" cy="461.08" r="49.4"/><circle class="cls-2" cx="360.91" cy="526.13" r="30.95"/><circle class="cls-2" cx="470.77" cy="151.8" r="28.09"/><circle class="cls-3" cx="984.48" cy="539.59" r="34.88"/><circle class="cls-2" cx="822.98" cy="254.72" r="30.31"/><circle class="cls-3" cx="867.84" cy="819.57" r="17.44"/><circle class="cls-2" cx="309.32" cy="328.74" r="22.34"/><circle class="cls-3" cx="76.12" cy="461.08" r="15.48"/><circle class="cls-2" cx="645.78" cy="938.85" r="17.44"/><circle class="cls-2" cx="207.06" cy="640.33" r="17.44"/><circle class="cls-3" cx="498.86" cy="759.41" r="17.44"/><circle class="cls-3" cx="526.12" cy="846.33" r="13.38"/></svg>