<svg xmlns="http://www.w3.org/2000/svg" id="fea515ef-617e-4ef7-b3f1-ba84b4cf52f6" width="888" height="512.657" data-name="Layer 1" viewBox="0 0 888 512.657"><title>opened_tabs</title><ellipse cx="383.376" cy="496.065" fill="#e6e6e6" rx="144.416" ry="16.591"/><rect width="295.995" height="189.568" x="728.299" y="291.239" fill="#e6e6e6" transform="translate(-23.75745 -410.38653) rotate(15.23572)"/><rect width="279.067" height="154.577" x="734.375" y="317.499" fill="#fff" transform="matrix(0.96485, 0.26279, -0.26279, 0.96485, -21.538, -409.45112)"/><rect width="295.995" height="18.293" x="750.726" y="294.054" fill="#6f389f" transform="translate(-44.73423 -419.19109) rotate(15.23572)"/><circle cx="613.168" cy="74.242" r="4.424" fill="#fff"/><circle cx="629.369" cy="78.655" r="4.424" fill="#fff"/><circle cx="645.569" cy="83.067" r="4.424" fill="#fff"/><rect width="246.447" height="16.43" x="761.149" y="347.916" fill="#e6e6e6" transform="matrix(0.96485, 0.26279, -0.26279, 0.96485, -31.32886, -413.55941)"/><rect width="246.447" height="16.43" x="752.024" y="382.148" fill="#e6e6e6" transform="translate(-22.65365 -409.95851) rotate(15.23572)"/><rect width="246.447" height="16.43" x="742.9" y="416.381" fill="#e6e6e6" transform="translate(-13.97845 -406.35761) rotate(15.23572)"/><rect width="295.995" height="189.568" x=".126" y="234.21" fill="#e6e6e6"/><rect width="279.067" height="154.577" x="8.59" y="260.79" fill="#fff"/><rect width="295.995" height="18.293" y="234.042" fill="#6f389f"/><circle cx="13.723" cy="243.189" r="4.424" fill="#fff"/><circle cx="30.514" cy="243.189" r="4.424" fill="#fff"/><circle cx="47.304" cy="243.189" r="4.424" fill="#fff"/><rect width="246.447" height="16.43" x="24.837" y="289.816" fill="#e6e6e6"/><rect width="246.447" height="16.43" x="25.03" y="325.242" fill="#e6e6e6"/><rect width="246.447" height="16.43" x="25.222" y="360.669" fill="#e6e6e6"/><rect width="317.084" height="203.075" x="536.157" y="292.991" fill="#e6e6e6"/><rect width="298.95" height="165.59" x="545.224" y="321.464" fill="#fff"/><rect width="317.084" height="19.597" x="536.022" y="292.811" fill="#6f389f"/><circle cx="550.722" cy="302.609" r="4.739" fill="#fff"/><circle cx="568.709" cy="302.609" r="4.739" fill="#fff"/><circle cx="586.696" cy="302.609" r="4.739" fill="#fff"/><rect width="264.006" height="17.6" x="562.628" y="352.558" fill="#e6e6e6"/><rect width="264.006" height="17.6" x="562.834" y="390.509" fill="#e6e6e6"/><rect width="264.006" height="17.6" x="563.041" y="428.46" fill="#e6e6e6"/><path fill="#a0616a" d="M438.15514,405.70679l-4.36836,8.73672s-17.47346,30.57855-2.91224,30.57855S448.348,418.81188,448.348,418.81188l1.45612-8.73673Z" transform="translate(-156 -193.67161)"/><path fill="#a0616a" d="M595.41622,238.25286s1.45612,24.75406,5.82449,29.12242-36.403,0-36.403,0,1.45612-27.6663,0-29.12242S595.41622,238.25286,595.41622,238.25286Z" transform="translate(-156 -193.67161)"/><path fill="#2f2e41" d="M522.61017,398.42618S508.049,484.33733,508.049,495.9863s-5.82449,26.21018-5.82449,26.21018l-26.33588,98.6494,37.99387,3.08058L539.554,540.7507,567.74992,456.671l16.01733,85.91114L580.855,641.59841l29.12242,2.91224,16.01734-107.753s10.19285-129.59478-8.73673-132.507S522.61017,398.42618,522.61017,398.42618Z" transform="translate(-156 -193.67161)"/><polygon fill="#2f2e41" points="425.655 432.309 427.767 468.312 446.697 468.312 448.153 446.471 425.655 432.309"/><path fill="#2f2e41" d="M586.6795,656.15962s-4.36837-16.01733-7.28061-7.2806-7.2806,18.92957-7.2806,18.92957-11.649,11.649,2.91224,16.01733,24.75406,2.91224,24.75406,7.28061,49.50812,14.56121,46.59587-1.45612-23.29794-23.29794-23.29794-23.29794-12.3369-23.29794-17.08935-21.84182-6.20858,7.28061-6.20858,7.28061Z" transform="translate(-156 -193.67161)"/><polygon fill="#2f2e41" points="331.663 420.261 328.751 446.471 349.137 446.471 355.829 421.013 331.663 420.261"/><circle cx="423.399" cy="31.476" r="24.754" fill="#a0616a"/><path fill="#575a89" d="M598,258.79729s-15.07043,11.10509-34-2c0,0-6,0-16.63577.38514-11.08223.40131-30.57855,11.649-30.57855,11.649L515,340.79729l11.97853-4.98432s-21.84182,52.42036-11.649,59.701,4.36836,10.19285,4.36836,10.19285,14.56122-11.649,26.21018-2.91225,77.17442,8.73673,77.17442,5.82449a6.37774,6.37774,0,0,0-1.45612-4.36836s8.73673-11.649-4.36836-27.66631c0,0,10.19285-13.10509,7.28061-20.38569l17.47345-61.15709s-4.36836-16.01733-16.01733-20.3857S598,258.79729,598,258.79729Z" transform="translate(-156 -193.67161)"/><path fill="#575a89" d="M528.43465,271.74364l-11.649-2.91224S492.03162,299.40994,484.751,312.515s-46.59588,78.63054-46.59588,82.99891S435.2429,408.619,435.2429,408.619l16.01733,5.82448s5.82449-8.73672,7.28061-8.73672,34.9469-30.57855,33.49078-34.94691,13.10509-13.10509,13.10509-13.10509,4.792-4.79773,5.82449-5.82449c1.0388-1.033,20.38569-21.84181,20.38569-21.84181Z" transform="translate(-156 -193.67161)"/><path fill="#a0616a" d="M709.75254,414.94854l4.36837,8.73672s17.47345,30.57855,2.91224,30.57855-17.47345-26.21018-17.47345-26.21018l-1.45613-8.73673Z" transform="translate(-156 -193.67161)"/><path fill="#575a89" d="M619.473,280.98539l11.649-2.91224s24.75406,30.57854,32.03467,43.68363,46.59587,78.63055,46.59587,82.99891,2.91225,13.10509,2.91225,13.10509l-16.01734,5.82448s-5.82448-8.73672-7.2806-8.73672S654.41994,384.37,655.87606,380.00163,642.771,366.89654,642.771,366.89654s-5.82448-4.36836-5.82448-5.82448-20.3857-21.84182-20.3857-21.84182Z" transform="translate(-156 -193.67161)"/><path fill="#2f2e41" d="M592.15539,213.25816s2.98885,6.46823-8.96656,3.88094c0,0-4.48327,2.58729-4.48327-1.29365,0,0-5.97771,6.46823-7.47213,2.5873s-4.48328,1.29364-4.48328,1.29364l-2.98885-6.46823-2.98885,3.88094h-10.461s-2.98885-25.87291,32.87736-23.28562,18.22193,43.58037,18.22193,43.58037-.28882-7.35829-3.27767-3.47736S592.15539,213.25816,592.15539,213.25816Z" transform="translate(-156 -193.67161)"/><path fill="#2f2e41" d="M503.10453,633.66949s-2.59191-16.39877,3.65013-9.62762,14.40961,14.27232,14.40961,14.27232,15.40419,5.8402,3.91969,15.801-21.37666,12.81728-19.58342,16.8006S466.33371,704.517,462.414,688.716s11.6804-30.80837,11.6804-30.80837,1.6855-26.30879,6.61681-26.93194,8.65009,4.09021,8.65009,4.09021Z" transform="translate(-156 -193.67161)"/></svg>