<?xml version="1.0" standalone="no"?>
<!DOCTYPE svg PUBLIC "-//W3C//DTD SVG 20010904//EN"
 "http://www.w3.org/TR/2001/REC-SVG-20010904/DTD/svg10.dtd">
<svg version="1.0" xmlns="http://www.w3.org/2000/svg"
 width="1665.000000pt" height="1665.000000pt" viewBox="0 0 1665.000000 1665.000000"
 preserveAspectRatio="xMidYMid meet">
<metadata>
Created by potrace 1.11, written by Peter Selinger 2001-2013
</metadata>
<g transform="translate(0.000000,1665.000000) scale(0.100000,-0.100000)"
fill="#000000" stroke="none">
<path d="M0 8325 l0 -8325 8325 0 8325 0 0 8325 0 8325 -8325 0 -8325 0 0
-8325z m6564 6898 c4 -406 11 -1320 16 -2032 6 -712 11 -1296 13 -1297 2 -2
387 210 857 470 l855 473 5 -2085 5 -2084 1768 -1040 1767 -1040 -812 -500
c-447 -275 -814 -501 -815 -502 -3 -3 1748 -987 1873 -1053 39 -21 432 -240
872 -488 613 -344 798 -453 789 -462 -7 -6 -522 -326 -1146 -712 -850 -525
-1138 -698 -1150 -692 -9 5 -711 417 -1561 916 -1280 751 -1548 904 -1565 897
-11 -5 -706 -417 -1544 -916 l-1523 -906 -1182 684 c-649 376 -1181 688 -1181
692 0 5 401 235 890 512 490 277 1296 733 1793 1014 496 281 901 512 900 513
-2 2 -397 227 -878 500 -481 274 -877 500 -880 502 -2 2 -17 453 -33 1001 -15
548 -30 998 -31 999 -3 3 -342 -185 -2646 -1468 l-875 -487 -6 411 c-4 227
-10 813 -13 1302 l-7 891 1560 914 1560 915 3 1794 3 1794 1150 653 c633 360
1153 654 1156 654 3 0 9 -332 13 -737z m4711 136 c627 -325 1146 -595 1153
-601 9 -8 12 -397 12 -1882 l0 -1871 1540 -915 1540 -915 0 -1273 c0 -700 -3
-1271 -7 -1269 -5 3 -397 237 -873 522 -476 285 -877 521 -891 525 -14 4 -446
256 -960 560 -514 304 -1299 769 -1746 1033 l-812 481 -5 50 c-3 28 -14 537
-26 1131 -11 594 -30 1485 -40 1980 -71 3284 -68 3050 -42 3041 9 -4 530 -273
1157 -597z m-8167 -3505 c-9 -8 -1577 -921 -1771 -1031 -4 -2 -6 456 -5 1018
l3 1022 890 497 890 497 3 -996 c2 -788 -1 -998 -10 -1007z m11586 1457 l846
-454 0 -1019 0 -1019 -27 16 c-16 9 -399 224 -853 479 l-825 462 -3 998 c-1
583 2 996 7 994 5 -1 390 -207 855 -457z m-5319 -11256 c440 -257 806 -473
812 -479 19 -17 -1721 -1052 -1747 -1040 -61 30 -1647 1030 -1642 1036 4 4
387 229 852 502 l845 494 40 -22 c22 -13 400 -234 840 -491z"/>
</g>
</svg>
