<?xml version="1.0" encoding="utf-8"?>
<!-- Generator: Adobe Illustrator 23.0.1, SVG Export Plug-In . SVG Version: 6.00 Build 0)  -->
<svg version="1.1" id="master-artboard" xmlns="http://www.w3.org/2000/svg" xmlns:xlink="http://www.w3.org/1999/xlink" x="0px"
	 y="0px" viewBox="0 0 1150.6 778.8" style="enable-background:new 0 0 1150.6 778.8;" xml:space="preserve">
<style type="text/css">
	.st0{fill:#7AC89D;fill-opacity:0;}
	.st1{fill:#F26365;fill-opacity:0;}
	.st2{fill:#6C108A;}
	.st3{fill:#F7B617;fill-opacity:0;}
	.st4{fill:#FFFFFF;}
</style>
<g id="XMLID_287_" transform="matrix(1, 0, 0, 1, 13.33481724117135, 36.08244665258127)">
	<g id="XMLID_223_">
		<path id="XMLID_398_" class="st0" d="M400.1,435.5c0,0-38.7,13.3-36,54s43.3,63.3,44.7,86c1.3,22.7,20.7,82.7,91.3,60.7
			c0,0,7.3,52,64,56.7c0,0,14,32.7,58.3,40s78-18.7,78-18.7s44.3,22.7,85.7,5.3c41.3-17.3,34-45.3,34-45.3s64,28,86.7-48.7
			c0,0,78-6,94-60s-14-130-74.7-130C865.5,435.5,400.1,435.5,400.1,435.5z"/>
	</g>
	<g id="XMLID_195_">
		<path id="XMLID_359_" class="st1" d="M400.1,435.5c0,0-38.7-13.3-36-54s43.3-63.3,44.7-86c1.3-22.7,20.7-82.7,91.3-60.7
			c0,0,7.3-52,64-56.7c0,0,14-32.7,58.3-40s78,18.7,78,18.7s44.3-22.7,85.7-5.3s34,45.3,34,45.3s64-28,86.7,48.7c0,0,78,6,94,60
			s-14,130-74.7,130C865.5,435.5,400.1,435.5,400.1,435.5z"/>
	</g>
	<g id="XMLID_189_">
		<path id="XMLID_392_" class="st2" d="M1013.6,534.9c0,11.3-1.5,22.5-4.6,33c-15,50.5-76.3,62.8-95.7,65.4
			c-8.1,23.9-21.2,40.1-38.9,48.4c-17.1,8-34.5,6.4-45.7,3.9c-1.9,12-10.1,29.5-39.2,41.7c-36.8,15.4-75,2.2-88.1-3.4
			c-11,7.1-41.8,23.7-80.2,17.3c-38.5-6.4-56.4-30.2-62.3-40.4c-29.7-3.9-46.2-20.1-55-33.4c-5-7.6-8-15.1-9.8-20.8
			c-23.8,5.6-44.2,2.8-60.7-8.6c-24.1-16.7-32.1-46.9-33-62c-0.4-7-7.7-16.1-15.4-25.7c-12.3-15.3-27.5-34.3-29.2-60.2
			c-2.4-37.3,26.2-57.2,41.7-62.6c0.9-0.3,1.8-0.5,2.8-0.5h526c25,0,47.7,11.9,63.9,33.6C1005.3,481,1013.6,508.3,1013.6,534.9z
			 M811.6,673.9c0-2.4,1-4.6,2.9-6.3c2.5-2.2,6-2.6,9.1-1.3c0.2,0.1,22.9,9.6,43.7-0.1c14.4-6.7,24.9-21.3,31.4-43.2
			c1-3.4,4-5.8,7.5-6.1c0.7-0.1,72.4-6.3,86.5-53.9c8.9-30.2,2.4-67.3-16.2-92.3c-9.1-12.2-25.3-26.8-50.3-26.8H401.7
			c-6,2.5-31.1,14.8-29.1,44.9c1.3,20.6,14.2,36.6,25.5,50.7c9.5,11.8,18.4,23,19.2,35.4c0.7,11.3,6.9,36.1,25.7,49.1
			c13.9,9.6,32.3,11,54.6,4c2.4-0.7,5-0.4,7.1,0.9s3.5,3.5,3.9,6c0.3,1.8,7.3,45.3,56.3,49.4c3.1,0.3,5.9,2.2,7.1,5.1
			c0.5,1.1,13.1,28.5,51.9,35c39.9,6.6,71.1-16.8,71.4-17c2.6-2,6.1-2.3,9-0.8c0.4,0.2,41.4,20.6,78.5,5.1
			c32.8-13.8,29.4-33.8,29-35.4C811.7,675.5,811.6,674.7,811.6,673.9z"/>
	</g>
	<g id="XMLID_190_">
		<path id="XMLID_391_" class="st2" d="M828.6,674.2c0,1.1-0.2,2.2-0.6,3.2c-1.8,4.3-6.7,6.4-11.1,4.7c-0.8-0.3-20.7-8.6-35.3-31.3
			c-2.5-3.9-1.4-9.2,2.5-11.8c3.9-2.5,9.2-1.4,11.8,2.5c11.6,17.9,27.2,24.7,27.4,24.7C826.6,667.6,828.6,670.8,828.6,674.2z"/>
	</g>
	<g id="XMLID_191_">
		<path id="XMLID_390_" class="st2" d="M737.6,663.8c0,5.2-0.6,10.3-1.8,15.3c-6.7,28.3-30.2,41.9-31.2,42.5
			c-4.1,2.3-9.3,0.9-11.6-3.2c-2.3-4.1-0.9-9.2,3.2-11.6c0.3-0.2,18.3-10.9,23.1-31.8c3.8-16.6-1.2-35.4-15-56.1
			c-2.6-3.9-1.5-9.2,2.4-11.8s9.2-1.5,11.8,2.4C731.2,628.5,737.6,646.7,737.6,663.8z"/>
	</g>
	<g id="XMLID_192_">
		<path id="XMLID_389_" class="st2" d="M770,589.8c0,0.4,0,0.8-0.1,1.1c-4.9,36.5-32.7,49.4-46.7,51.2c-4.7,0.6-8.9-2.7-9.5-7.4
			c-0.6-4.6,2.7-8.9,7.3-9.5c1.2-0.2,27.7-4.3,32-36.6c0.6-4.7,4.9-7.9,9.6-7.3C766.9,582,770,585.6,770,589.8z"/>
	</g>
	<g id="XMLID_193_">
		<path id="XMLID_388_" class="st2" d="M916,614.2c0,7.2-0.7,12-0.8,12.6c-0.7,4.6-5,7.9-9.6,7.2s-7.9-5-7.2-9.6l0,0
			c0-0.3,4.1-30.2-10.2-49.2c-6.4-8.5-15.4-13.5-27.6-15.2c-4.6-0.7-7.9-5-7.2-9.6c0.7-4.6,4.9-7.9,9.6-7.2
			c16.6,2.3,29.7,9.7,38.9,21.9C913.8,580.9,916,601.2,916,614.2z"/>
	</g>
	<g id="XMLID_194_">
		<path id="XMLID_387_" class="st2" d="M950.6,546.2c0,1.3-0.3,2.7-1,3.9c-16.5,31.3-54.1,28.2-55.7,28.1c-4.7-0.4-8.1-4.6-7.7-9.3
			s4.6-8.1,9.2-7.7c1.2,0.1,28,2.1,39.1-19c2.2-4.2,7.3-5.8,11.5-3.6C949,540.2,950.6,543.1,950.6,546.2z"/>
	</g>
	<g id="XMLID_188_">
		<path id="XMLID_386_" class="st2" d="M797.3,490.8c0,1.4-0.3,2.8-1.1,4.1c-0.3,0.5-6.7,12-19.9,20.5c-12.3,7.9-32.9,14.7-61.5,2.6
			c-43.5-18.5-78.3,9.2-78.7,9.4c-3.6,3-9,2.4-12-1.3c-3-3.6-2.4-9,1.3-12c1.7-1.4,43.2-34.3,96-11.9c17.4,7.4,32.8,7,45.7-1.3
			c9.5-6.1,14.2-14.3,14.2-14.4c2.3-4.1,7.4-5.6,11.5-3.4C795.7,484.9,797.3,487.8,797.3,490.8z"/>
	</g>
	<g id="XMLID_196_">
		<path id="XMLID_385_" class="st2" d="M711.6,505.2c0,2.8-1.4,5.6-3.9,7.2c-1.1,0.7-23.5,15.8-12.1,48.3c1.5,4.4-0.8,9.3-5.2,10.8
			s-9.3-0.8-10.8-5.2c-12.8-36.6,6.9-60.6,19.1-68.3c4-2.5,9.2-1.3,11.7,2.7C711.1,502.1,711.6,503.7,711.6,505.2z"/>
	</g>
	<g id="XMLID_197_">
		<path id="XMLID_384_" class="st2" d="M626,642.8c0,18.2-5.5,32.6-16.5,42.8c-18.3,17.2-44.8,15.7-45.9,15.7c-4.7-0.3-8.2-4.3-8-9
			c0.3-4.7,4.3-8.2,9-8c0.3,0,20.5,1,33.3-11.1c7.3-6.9,11-17.1,11-30.4c0-4.7,3.8-8.5,8.5-8.5C622.2,634.3,626,638.1,626,642.8z"/>
	</g>
	<g id="XMLID_198_">
		<path id="XMLID_383_" class="st2" d="M572.6,574.8c0,0.2,0,0.5,0,0.7c-0.4,4.7-4.5,8.2-9.2,7.8c-16.9-1.4-30.1,2.4-39.2,11.1
			c-16.2,15.4-15.6,41.3-15.6,41.5c0.1,4.7-3.5,8.6-8.2,8.8c-4.7,0.1-8.6-3.5-8.8-8.2c0-1.4-0.8-33.8,20.9-54.3
			c12.8-12.2,30.4-17.5,52.3-15.7C569.3,566.7,572.6,570.4,572.6,574.8z"/>
	</g>
	<g id="XMLID_199_">
		<path id="XMLID_382_" class="st2" d="M555.8,549.4c0,14.3-3.9,26.7-4.3,27.8c-1.5,4.5-6.2,6.9-10.7,5.5s-6.9-6.2-5.5-10.7l0,0
			c0.1-0.4,11.2-36.7-7.4-47c-4.1-2.3-5.6-7.4-3.3-11.6c2.3-4.1,7.4-5.6,11.6-3.3C551.8,518.7,555.8,535,555.8,549.4z"/>
	</g>
	<g id="XMLID_200_">
		<path id="XMLID_381_" class="st2" d="M463.3,498.8c0,3.6-2.3,6.9-5.8,8.1c-43.8,14.4-40.2,67.4-40.2,67.9c0.4,4.7-3.1,8.8-7.8,9.1
			c-4.7,0.4-8.8-3.1-9.1-7.8c-0.1-0.7-1.2-16.8,4.3-35.2c7.6-25.1,24-42.5,47.5-50.2c4.5-1.5,9.3,1,10.7,5.4
			C463.2,497,463.3,497.9,463.3,498.8z"/>
	</g>
	<g id="XMLID_204_">
		<path id="XMLID_380_" class="st2" d="M605.4,438.8c0,27-19,39.8-29.6,42.8c-4.5,1.3-9.2-1.3-10.5-5.8s1.3-9.2,5.7-10.5
			c2-0.6,18.8-6.5,17.3-29.3c-0.3-4.7,3.2-8.7,7.9-9s8.7,3.2,9,7.9C605.4,436.3,605.4,437.6,605.4,438.8z"/>
	</g>
	<g id="XMLID_203_">
		<path id="XMLID_379_" class="st2" d="M946.3,436.5c0,4.7-3.8,8.5-8.5,8.5c-39.6,0-44.6,20.3-44.8,21.2V466l-16.7-3.1
			c0.3-1.4,7.1-35,61.5-35C942.5,428,946.3,431.8,946.3,436.5z"/>
	</g>
	<g id="XMLID_205_">
		<path id="XMLID_378_" class="st2" d="M471.3,435.5c0,4.7-3.8,8.5-8.5,8.5c-25.5,0-29.2,19.1-29.6,21.3c-0.7,4.6-4.9,7.9-9.6,7.2
			c-4.6-0.7-7.9-5-7.2-9.6c1.7-12.4,13.7-35.8,46.4-35.8C467.5,427,471.3,430.8,471.3,435.5z"/>
	</g>
	<g id="XMLID_222_">
		<path id="XMLID_375_" class="st2" d="M1013.6,336.1c0,26.6-8.3,53.9-23.5,74.3c-16.2,21.7-38.9,33.6-63.9,33.6h-526
			c-0.9,0-1.9-0.2-2.8-0.5c-15.5-5.3-44.2-25.3-41.7-62.6c1.7-25.9,17-44.9,29.2-60.2c7.7-9.6,15-18.7,15.4-25.7
			c0.9-15.2,8.8-45.3,33-62c16.5-11.4,36.8-14.3,60.7-8.6c1.8-5.6,4.8-13.1,9.8-20.8c8.7-13.3,25.2-29.5,55-33.4
			c6-10.2,23.8-34,62.3-40.4c38.5-6.4,69.2,10.2,80.2,17.3c13.1-5.6,51.3-18.9,88.1-3.4c29.1,12.2,37.3,29.7,39.2,41.7
			c11.1-2.5,28.5-4,45.6,3.9c17.7,8.3,30.8,24.5,38.9,48.4c19.4,2.6,80.8,14.9,95.7,65.4C1012.1,313.6,1013.6,324.7,1013.6,336.1z
			 M401.7,427h524.4c25,0,41.2-14.6,50.3-26.8c18.7-25,25.2-62.1,16.2-92.3c-14.2-47.8-85.8-53.9-86.5-53.9
			c-3.5-0.3-6.5-2.7-7.5-6.1c-6.5-22-17.1-36.5-31.5-43.2c-21-9.8-43.4-0.2-43.6-0.1c-3,1.3-6.6,0.9-9.1-1.3s-3.5-5.4-2.6-8.6
			c0.3-1.6,3.8-21.6-29-35.4c-37.1-15.5-78.1,4.9-78.5,5.1c-2.9,1.5-6.5,1.2-9.1-0.8c-0.3-0.2-31.5-23.6-71.4-17
			c-39.3,6.5-51.8,34.7-51.9,35c-1.2,2.9-4,4.9-7.1,5.1c-49,4-56,47.6-56.3,49.4c-0.4,2.5-1.8,4.6-3.9,6c-2.1,1.3-4.7,1.7-7,0.9
			c-22.4-7-40.7-5.6-54.6,4c-18.8,13-25,37.8-25.7,49.1c-0.7,12.4-9.7,23.6-19.2,35.4c-11.3,14.1-24.2,30.1-25.5,50.7
			C370.6,412.1,395.9,424.5,401.7,427z"/>
	</g>
	<g id="XMLID_221_">
		<path id="XMLID_374_" class="st2" d="M828.6,196.8c0,3.3-2,6.5-5.3,7.9c-0.3,0.1-15.9,6.9-27.4,24.8c-2.5,3.9-7.8,5.1-11.8,2.5
			c-3.9-2.5-5.1-7.8-2.5-11.8c14.6-22.7,34.4-30.9,35.3-31.3c4.3-1.8,9.3,0.3,11.1,4.7C828.4,194.7,828.6,195.8,828.6,196.8z"/>
	</g>
	<g id="XMLID_220_">
		<path id="XMLID_373_" class="st2" d="M737.6,207.2c0,17.1-6.4,35.3-19.1,54.4c-2.6,3.9-7.9,5-11.8,2.4c-3.9-2.6-5-7.9-2.4-11.8
			c13.8-20.8,18.9-39.7,14.9-56.3c-5-21.1-22.9-31.5-23-31.6c-4.1-2.3-5.5-7.5-3.2-11.6s7.5-5.5,11.6-3.2c1,0.6,24.5,14.2,31.2,42.5
			C737,196.9,737.6,202,737.6,207.2z"/>
	</g>
	<g id="XMLID_219_">
		<path id="XMLID_372_" class="st2" d="M770,281.2c0,4.2-3.1,7.8-7.4,8.4c-4.7,0.6-8.9-2.6-9.6-7.3c-4.4-32.8-31.7-36.5-32-36.6
			c-4.7-0.6-8-4.8-7.4-9.5s4.8-8,9.5-7.4c14,1.7,41.8,14.7,46.7,51.2C769.9,280.4,770,280.8,770,281.2z"/>
	</g>
	<g id="XMLID_218_">
		<path id="XMLID_371_" class="st2" d="M916,256.8c0,12.9-2.2,33.3-14.1,49.2c-9.1,12.2-22.2,19.6-38.9,21.9
			c-4.6,0.7-8.9-2.6-9.6-7.2c-0.6-4.6,2.6-8.9,7.2-9.6c12.2-1.7,21.2-6.7,27.6-15.3c14.3-19.1,10.2-48.8,10.1-49.1
			c-0.7-4.6,2.5-9,7.2-9.6c4.6-0.7,9,2.5,9.6,7.2C915.3,244.8,916,249.7,916,256.8z"/>
	</g>
	<g id="XMLID_217_">
		<path id="XMLID_370_" class="st2" d="M950.6,324.8c0,3.1-1.7,6-4.6,7.5c-4.2,2.2-9.3,0.6-11.5-3.6c-11.2-21.4-38.8-19.1-39.1-19
			c-4.7,0.4-8.8-3-9.3-7.7c-0.4-4.7,3-8.8,7.7-9.3c1.6-0.1,39.2-3.3,55.7,28.1C950.3,322.1,950.6,323.5,950.6,324.8z"/>
	</g>
	<g id="XMLID_216_">
		<path id="XMLID_369_" class="st2" d="M797.3,380.1c0,3-1.6,5.9-4.4,7.5c-4.1,2.3-9.3,0.8-11.5-3.4c0,0-4.9-8.6-14.8-14.7
			c-12.8-7.9-27.9-8.2-45.1-0.9c-52.8,22.4-94.3-10.5-96-11.9c-3.6-3-4.2-8.3-1.3-12c2.9-3.6,8.3-4.2,11.9-1.3l0,0
			c1.4,1.1,35.5,27.8,78.7,9.5c28.6-12.1,49.2-5.3,61.5,2.6c13.3,8.5,19.7,20,19.9,20.5C797,377.4,797.3,378.8,797.3,380.1z"/>
	</g>
	<g id="XMLID_215_">
		<path id="XMLID_368_" class="st2" d="M711.6,365.7c0,1.5-0.4,3.1-1.3,4.5c-2.5,4-7.7,5.2-11.7,2.7c-12.2-7.6-31.9-31.7-19.1-68.3
			c1.5-4.4,6.4-6.8,10.8-5.2c4.4,1.5,6.8,6.4,5.2,10.8c-11.5,33,11.8,48.1,12.1,48.2C710.1,360.1,711.6,362.9,711.6,365.7z"/>
	</g>
	<g id="XMLID_214_">
		<path id="XMLID_367_" class="st2" d="M626,228.2c0,4.7-3.8,8.5-8.5,8.5s-8.5-3.8-8.5-8.5c0-13.3-3.7-23.5-11.1-30.4
			c-12.8-12-33-11.1-33.2-11.1c-4.7,0.3-8.7-3.3-9-8s3.3-8.7,8-9c1.1-0.1,27.6-1.5,45.9,15.7C620.4,195.6,626,210,626,228.2z"/>
	</g>
	<g id="XMLID_213_">
		<path id="XMLID_366_" class="st2" d="M572.6,296.2c0,4.4-3.4,8.1-7.8,8.5c-21.9,1.8-39.5-3.5-52.3-15.7
			c-21.6-20.5-20.9-53-20.9-54.3c0.1-4.7,4.1-8.4,8.8-8.2c4.7,0.1,8.4,4.1,8.2,8.7c0,0.3-0.4,26.4,15.6,41.6
			c9.2,8.7,22.3,12.4,39.2,11c4.7-0.4,8.8,3.1,9.2,7.8C572.6,295.7,572.6,295.9,572.6,296.2z"/>
	</g>
	<g id="XMLID_212_">
		<path id="XMLID_365_" class="st2" d="M555.8,321.6c0,14.4-4,30.7-19.6,39.3c-4.1,2.3-9.3,0.8-11.6-3.3s-0.8-9.3,3.3-11.6
			c18.6-10.3,7.5-46.6,7.4-47c-1.4-4.5,1-9.3,5.5-10.7s9.2,1,10.7,5.5C551.9,294.8,555.8,307.3,555.8,321.6z"/>
	</g>
	<g id="XMLID_211_">
		<path id="XMLID_364_" class="st2" d="M463.3,372.2c0,0.9-0.1,1.8-0.4,2.7c-1.5,4.5-6.3,6.9-10.7,5.4
			c-23.5-7.7-39.9-25.1-47.5-50.2c-5.6-18.4-4.4-34.5-4.3-35.2c0.4-4.7,4.5-8.2,9.1-7.8c4.7,0.4,8.2,4.4,7.8,9.1l0,0
			c0,0.1-1,14.1,3.8,29.5c6.1,19.6,18.3,32.5,36.4,38.5C461,365.3,463.3,368.6,463.3,372.2z"/>
	</g>
	<g id="XMLID_209_">
		<path id="XMLID_363_" class="st2" d="M626,254.5V272c0,4.7-3.8,8.5-8.5,8.5s-8.5-3.8-8.5-8.5v-17.5c0-4.7,3.8-8.5,8.5-8.5
			S626,249.8,626,254.5z"/>
	</g>
	<g id="XMLID_208_">
		<path id="XMLID_362_" class="st2" d="M651.1,435.5c0,0.8-0.1,1.6-0.3,2.4c-1.3,4.5-6.1,7.1-10.6,5.8c-11-3.2-31.4-17.1-29.5-46.7
			c0.3-4.7,4.4-8.2,9-7.9c4.7,0.3,8.2,4.4,7.9,9c-1.5,22.8,15.4,28.7,17.3,29.3C648.7,428.4,651.1,431.8,651.1,435.5z"/>
	</g>
	<g id="XMLID_206_">
		<path id="XMLID_361_" class="st2" d="M527.6,435.5c0,4.2-3.1,7.8-7.3,8.4c-4.6,0.6-8.9-2.6-9.6-7.2c-0.4-2.2-4.2-21.2-29.6-21.2
			c-4.7,0-8.5-3.8-8.5-8.5s3.8-8.5,8.5-8.5c32.7,0,44.7,23.4,46.4,35.8C527.6,434.7,527.6,435.1,527.6,435.5z"/>
	</g>
	<g id="XMLID_253_">
		<path id="XMLID_360_" class="st2" d="M1137.3,137.2v235c0,40.1-32.6,72.7-72.7,72.7H907.5c-4.7,0-8.5-3.8-8.5-8.5s3.8-8.5,8.5-8.5
			h157.1c30.7,0,55.7-25,55.7-55.7v-235c0-23-18.7-41.7-41.7-41.7h-90.5c-32.4,0-58.7-26.4-58.7-58.7c0-23-18.7-41.7-41.7-41.7
			H583.1c-23.4,0-42.5,19.1-42.5,42.5c0,32.8-26.7,59.5-59.5,59.5H352.4c-4.7,0-8.5-3.8-8.5-8.5s3.8-8.5,8.5-8.5h128.7
			c23.4,0,42.5-19.1,42.5-42.5c0-32.8,26.7-59.5,59.5-59.5h304.4c32.4,0,58.7,26.4,58.7,58.7c0,23,18.7,41.7,41.7,41.7h90.5
			C1110.9,78.5,1137.3,104.8,1137.3,137.2z"/>
	</g>
	<g id="XMLID_256_">
		<g id="XMLID_260_">
			<path id="XMLID_397_" class="st3" d="M3,89.5C3-36.2,128.3-46.2,177.7-8.5c49.3,37.7,79.3,43,79.3,43h17.5
				c9.1,0,16.5,7.4,16.5,16.5v38.5V128c0,9.1-7.4,16.5-16.5,16.5H257c0,0-30,5.4-79.3,43C128.3,225.2,3,215.2,3,89.5z"/>
		</g>
		<g id="XMLID_257_">
			<path id="XMLID_232_" class="st1" d="M364,77.7v21.2c0,13.4-10.9,24.3-24.3,24.3l0,0V53.4l0,0C353.1,53.4,364,64.3,364,77.7z"/>
		</g>
	</g>
	<g id="XMLID_202_" transform="matrix(1, 0, 0, 1, 0, -7.84401014186551)">
		<g id="XMLID_252_">
			<path id="XMLID_356_" class="st2" d="M291.7,58.9v77c0,13.8-11.2,25-25,25h-16.6c-4.4,1-32.1,8.5-75.1,41.3
				c-32,24.4-86.2,28-126.1,8.3c-40.1-19.8-62.2-60-62.2-113c0-53.1,22.1-93.2,62.2-113C88.8-35.2,143-31.7,175-7.2
				c42.8,32.7,70.6,40.2,75.1,41.3h16.6C280.5,33.9,291.7,45.1,291.7,58.9z M3.7,97.4c0,59.3,28.7,85.9,52.7,97.8
				c37.9,18.7,84.8,11.4,108.3-6.6c50.4-38.5,81.7-44.4,83-44.6c0.5-0.1,1-0.1,1.5-0.1h17.5c4.4,0,8-3.6,8-8v-77c0-4.4-3.6-8-8-8
				h-17.5c-0.5,0-1,0-1.5-0.1c-1.3-0.2-32.6-6.2-83-44.6C141.2-11.7,94.3-19.1,56.4-0.4C32.4,11.5,3.7,38.2,3.7,97.4z"/>
		</g>
		<g id="XMLID_201_" transform="matrix(1, 0, 0, 1, 0.7844023118908581, 0.7844015620975426)">
			<path id="XMLID_353_" class="st2" d="M314.4,59v73.6c0,9.7-7.9,17.6-17.6,17.6h-6.1c-9.7,0-17.6-7.9-17.6-17.6V59
				c0-9.7,7.9-17.6,17.6-17.6h6.1C306.5,41.4,314.4,49.3,314.4,59z M290.1,132.6c0,0.3,0.3,0.6,0.6,0.6h6.1c0.3,0,0.6-0.3,0.6-0.6
				V59c0-0.3-0.3-0.6-0.6-0.6h-6.1c-0.3,0-0.6,0.3-0.6,0.6V132.6z"/>
		</g>
		<g id="XMLID_254_" transform="matrix(1, 0, 0, 1, -74.51809714656349, -39.22005081176758)">
			<path id="XMLID_350_" class="st2" d="M414.9,99v73.6c0,9.7-7.9,17.6-17.6,17.6h-6.1c-9.7,0-17.6-7.9-17.6-17.6V99
				c0-9.7,7.9-17.6,17.6-17.6h6.1C407,81.4,414.9,89.3,414.9,99z M390.5,172.6c0,0.3,0.3,0.6,0.6,0.6h6.1c0.3,0,0.6-0.3,0.6-0.6V99
				c0-0.3-0.3-0.6-0.6-0.6h-6.1c-0.3,0-0.6,0.3-0.6,0.6L390.5,172.6L390.5,172.6z"/>
		</g>
		<g id="XMLID_255_" transform="matrix(1, 0, 0, 1, -75.30249793801468, -92.55931891370619)">
			<path id="XMLID_347_" class="st2" d="M436,179.7v21.2c0,18.1-14.7,32.8-32.8,32.8c-4.7,0-8.5-3.8-8.5-8.5v-69.8
				c0-4.7,3.8-8.5,8.5-8.5C421.3,146.9,436,161.6,436,179.7z M411.7,214.2c4.4-2.8,7.3-7.7,7.3-13.4v-10.4v-10.8
				c0-5.6-2.9-10.5-7.3-13.4v22.5V214.2z"/>
		</g>
	</g>
	<g id="XMLID_288_">
		<path id="XMLID_297_" class="st4" d="M105.3,169.5c0,4.7-3.8,8.5-8.5,8.5c-31.3,0-50.7-26.4-51.6-27.5c-2.7-3.8-1.9-9.1,1.9-11.9
			c3.8-2.7,9.1-1.9,11.9,1.9c0.2,0.3,15.4,20.5,37.8,20.5C101.5,161,105.3,164.8,105.3,169.5z"/>
	</g>
	<g id="XMLID_289_">
	</g>
	<g id="XMLID_290_">
	</g>
	<g id="XMLID_291_">
	</g>
</g>
</svg>
